<svg version="1.1" xmlns="http://www.w3.org/2000/svg" xmlns:xlink="http://www.w3.org/1999/xlink" viewBox="0 0 110 154" xml:space="preserve">
	<path d="M108.05,132.55c0,0-12.7-10.8-24.8-29c7.3-1.4,11.8-3.3,11.8-5.4c0,0-12.3-10.4-22.3-27.6c7.5-1,12.4-2.7,12.4-4.6 c0,0-12.4-10.5-20.2-27.3c6.2-0.7,10.4-1.9,10.4-3.4c0,0-14.8-12.5-17.3-30.9c-0.4-2.7-5.8-2.9-6.2,0c-2.4,20.2-17.3,30.9-17.3,30.9 c0,1.5,4.4,2.8,10.9,3.4c-7.7,17.9-20.7,27.3-20.7,27.3c0,2,5.3,3.7,13.3,4.8c-10.1,18.1-23.2,27.5-23.2,27.5 c0,2.2,5.1,4.3,13.2,5.7c-12.4,19-26.1,28.8-26.1,28.8c0,5,19.1,9.2,44.2,10v5.2c0,2.1,1.7,3.8,3.8,3.8h10.1c2.1,0,3.8-1.7,3.8-3.8 v-5.2C88.85,141.65,108.05,137.55,108.05,132.55z"/>
	<g class="c-christmas-tree__lights">
		<circle cx="63" cy="27" r="2"/>
		<circle cx="58" cy="90" r="4"/>
		<circle cx="77" cy="97" r="3"/>
		<circle cx="33" cy="90" r="4"/>
		<circle cx="49" cy="32" r="4"/>
		<circle cx="45" cy="111" r="3"/>
		<circle cx="28" cy="132" r="3"/>
		<circle cx="63" cy="75" r="2"/>
		<circle cx="89" cy="130" r="2"/>
		<circle cx="49" cy="49" r="2"/>
		<circle cx="71" cy="64" r="4"/>
		<circle cx="49" cy="130" r="4"/>
		<circle cx="71" cy="120" r="3"/>
		<circle cx="45" cy="68" r="3"/>
	</g>
</svg>
