<svg version="1.1" xmlns="http://www.w3.org/2000/svg" xmlns:xlink="http://www.w3.org/1999/xlink" viewBox="0 0 98 156" xml:space="preserve">
	<path d="M95.7,133.8l-17.2-30.6c4-1.1,6.3-2.4,6.3-3.9L68.6,70.5c5-1,8-2.3,8-3.7l-16-28.7c5.4-0.7,8.9-1.9,8.9-3.2L52.1,4.1 c-1.4-2.4-4.8-2.4-6.2,0L28.6,34.9c0,1.3,3.5,2.5,8.9,3.2L21.4,66.8c0,1.4,3.1,2.8,8,3.7L13.2,99.3c0,1.4,2.3,2.8,6.3,3.9L2.3,133.8 c0,4.2,15.2,7.7,35.7,8.6v7.6c0,2,1.6,3.7,3.7,3.7h14.7c2,0,3.7-1.6,3.7-3.7v-7.6C80.5,141.5,95.7,138,95.7,133.8z"/>
	<g class="c-christmas-tree__lights">
		<circle cx="56" cy="27" r="2"/>
		<circle cx="82.5" cy="129.75" r="4"/>
		<circle cx="71.75" cy="121.75" r="3"/>
		<circle cx="26" cy="90" r="4"/>
		<circle cx="36.25" cy="114" r="4"/>
		<circle cx="43.75" cy="36" r="3"/>
		<circle cx="28.75" cy="130.25" r="3"/>
		<circle cx="47" cy="89.25" r="2"/>
		<circle cx="70" cy="92.25" r="2"/>
		<circle cx="62.5" cy="66.75" r="2"/>
		<circle cx="60.5" cy="112" r="4"/>
		<circle cx="56.75" cy="46.5" r="4"/>
		<circle cx="60.5" cy="79.5" r="3"/>
		<circle cx="38" cy="68" r="3"/>
	</g>
</svg>
