<?xml version="1.0" encoding="utf-8"?>
<!-- Generator: Adobe Illustrator 26.5.0, SVG Export Plug-In . SVG Version: 6.00 Build 0)  -->
<svg version="1.1" id="Layer_3" xmlns="http://www.w3.org/2000/svg" xmlns:xlink="http://www.w3.org/1999/xlink" x="0px" y="0px"
	 viewBox="0 0 260 321" style="enable-background:new 0 0 260 321;" xml:space="preserve">
<g>
	<path style="fill:#C48A6E;" d="M57.034,119.079l6.185,0.952l-5.682,1.136c0.861,3.321,2.171,7.153,4.146,11.205l6.076-0.794
		l-4.646,2.418c0.922,0.906,1.838,1.751,2.75,2.563l1.527-0.2l-1.101,0.573c20.787,18.204,38.955,12.58,49.752,5.668
		c-3.104-12.257-13.252-22.211-20.196-27.811c-7.811,1.134-11.177-2.348-12.335-4.06c-4.732-0.326-7.421-1.364-7.421-1.364
		c6.372-0.088,11.821-0.818,16.433-1.871c-2.159-0.628-3.402-2.029-4.088-3.191c-6.572-0.621-12.112-2.017-14.455-2.674
		c-0.386-0.109-0.686-0.198-0.889-0.258c-0.204-0.062-0.311-0.096-0.311-0.096c0.103,0.034,0.207,0.064,0.311,0.096
		c0.294,0.091,0.59,0.177,0.889,0.258c6.764,1.827,14.557,0.924,21.25-0.693c-7.317-3.062-9.755-8.574-10.539-11.372l-7.866-4.104
		c3.12,0.59,6.392,1.179,9.586,1.739c-4.362-4.144-4.833-8.778-4.807-10.738c-2.699-2.994-5.459-6.988-8.089-12.333
		c0,0,6.845,9.53,15.393,13.501c-6.659-7.575-1.192-14.26,0.972-16.405c-0.344-3.407-0.43-7.09-0.181-11.071
		c0,0,1.408,10.897,5.192,20.541c1.152,0.808,2.22,0.899,3.131,0.664c-2.429-11.341,1.226-18.428,1.226-18.428
		c0.141,2.105,2.215,12.283,3.856,20.104c9.26,15.833,21.301,21.459,31.556,22.935l18.979-10.332l0.056-0.911
		c0,0-1.756,0.062-4.743-0.891l-18.753,3.033l4.558-3.154c0,0-6.012-0.958-6.609-10.981l-2.977-0.581l4.146-2.679
		c-2.303-2.648-4.688-5.757-7.115-9.403l-3.907-5.135l0.411-0.458c-1.692-2.877-3.397-6.02-5.1-9.471
		c-1.297-2.627-4.009-4.534-6.079-7.027l-6.858,6.858l3.659-9.67L73.148,47.209c0,0-0.28,0.692-0.77,1.939l0.146,11.06
		c0,0-16.513,29.434-16.193,55.063C56.499,116.404,56.726,117.683,57.034,119.079z M134.381,33.253l-3.164,7.884
		c0.925,0.529,1.888,1.152,2.88,1.88l3.329-4.143L135.368,44c1.446,1.173,2.941,2.58,4.459,4.265l4.157-5.174l-2.737,6.819
		c1.533,1.868,3.079,4.029,4.61,6.532l19.908-23.188c0,0,0.475-0.922,1.367-2.098c-5.842-10.76-13.178-15.92-18.646-18.395
		l11.04,12.697l-5.934-4.279l-15.451-4.829l-0.329,0.135c-3.196,5.112-8.749,14.026-13.592,21.966
		c1.315,0.258,2.926,0.718,4.748,1.538L134.381,33.253z M129.415,227.773L109,263.5l11.5-33.5c-11-3.334-5.5-13.5-5.5-13.5
		l-18.334,16l-2.006-12.324l-7.536,9.088l26.106-48.866l-1.563-1.564l0.225-12.621c-1.923,2.099-4.151,4.059-6.742,5.747
		l-40.461,66.866l22.433-55.72l-4.389-3.17L66.896,211.61l6.368-16.398l-1.902-17.117l-7.289-5.062
		c-16.333,21.053-28.533,42.486-37.002,59.671c-2.552,16.988,1.173,30.826,7.799,41.919l22.463-21.789l-16.203,30.58
		c12.208,14.615,28.898,23.105,37.985,26.938c1.325-0.034,2.427-0.116,3.254-0.201l11.109-22.218L91.94,298.14l5.726,7.027
		l23.528-45.291l-1.338-2.293l13.812-25.936C132.082,230.413,130.674,229.106,129.415,227.773z M178.593,139.119
		c5.454,3.209,8.203,5.554,8.203,5.554c-2.931-0.587-5.939-1.772-8.776-3.193c-4.475-0.803-10.08-2.814-14.785-4.731
		c0.713,0.7,1.415,1.355,2.109,1.98c-1.079-1.083-1.719-1.779-1.719-1.779c11.557,8.988,20.942,10.798,25.564,11.075
		c0.235-0.045,0.468-0.095,0.697-0.149l4.318-4.627l-0.912-3.103l2.507,1.393l6.334-6.785l-1.131-3.839l3.104,1.724l5.953-6.379
		l-1.345-4.575l3.697,2.054l5.576-5.974l-1.562-5.312l4.293,2.386l10.946-11.727l-2.942-6.621c0,0-1.524-2.209-4.074-5.323
		c-5.381-2.845-13.893-7.851-17.979-10.276l-42.506,46.732L178.593,139.119z M143.163,143.24c-0.829-1.549-1.179-3.954-1.297-6.297
		c-2.816,1.981-4.733,2.121-5.684,2.004c-2.565,3.071-4.566,5.215-4.566,5.215c2.352-3.405,4.195-6.488,5.645-9.179
		c-0.784-1.096-2.137-1.274-3.35-1.155c-2.655,5.97-6.605,11.689-10.186,16.212l-3.714,12.34c-0.312,1.717-0.914,5.191-1.482,9.327
		l3.908,6.994c-1.213-21.489,8.575-30.108,8.575-30.108l-0.654,4.777L143.163,143.24z M114.673,190.725
		c-0.03-0.461-0.057-0.936-0.074-1.439l-0.138,0.351L114.673,190.725z M252.262,128.857l1.103-6.621l-3.298-4.269l-2.377,2.037
		c1.838,2.758,3.408,5.86,4.367,9.272L252.262,128.857z M172.359,170.059c0.562,0.61,1.381,1.476,2.413,2.504
		c-0.478-0.612-1.173-1.488-2.113-2.659C172.559,169.954,172.456,170.01,172.359,170.059z M176.376,38.388l-5.168,2.54
		c-5.985,8.194-18.844,25.932-25.249,35.767c1.344,0.948,2.724,1.811,4.132,2.597l6.576-7.125l-3.621,8.634
		c2.461,1.118,5.009,1.957,7.638,2.45l-1.472,0.368l-0.1,4.377l2.555,0.17c0,0,5.091,12.082-4.179,23.743l5.992-0.25l12.615-15.77
		l22.238-33.058l1.294-4.206c-0.935-1.459-1.867-2.807-2.794-4.073c-0.057,0.296-0.11,0.464-0.11,0.464
		c-5.438-8.564-14.597-13.937-19.811-16.471C176.732,38.493,176.552,38.437,176.376,38.388z M174.772,172.562
		c2.54,3.257-0.782-0.564-2.441-2.49c-2.467,1.233-4.293,1.816-4.293,1.816c1.431-1.329,2.338-2.711,2.92-4.019
		c-5.902-6.55-16.427-12.883-23.255-16.601l-18.106,23.778l-0.177,3.829l-0.975,7.794c1.319,1.007,2.496,1.987,3.552,2.942
		l0.26-1.139l-0.107,1.276c4.75,4.332,7.009,8.135,8.51,11.394l0.436-1.91l-0.204,2.42c1.725,3.869,2.491,6.944,5.385,9.199
		c1.933,1.506,3.828,2.743,5.683,3.769l0.66-2.406l-0.267,2.622c11.483,6.176,21.353,3.977,28.465,3.065
		c2.505-0.321,4.771-1.046,6.842-2.052c-7.082-4.019-10.183-9.279-10.183-9.279c4.658,3.667,9.69,5.779,13.95,6.999
		c1.985-1.48,3.736-3.246,5.277-5.174c-13.127-2.798-21.569-10.726-21.569-10.726c9.731,4.405,18.151,5.672,25.23,5.217
		c2.681-4.801,4.408-9.857,5.471-13.78C193.806,189.883,180.725,178.497,174.772,172.562z M250.054,148.351l-6.733,7.225
		l0.545,2.398l10.066-9.842L250.054,148.351z M92.348,184.963l-0.696-0.218l0.621,0.383L92.348,184.963z M229.332,87.539
		l-0.608-5.022l-6.13-7.039l-1.791,4.095l3.507,2.944L229.332,87.539z M247.722,143.369l-0.292-1.042l-7.096-11.827l8.435,5.56
		l0.825-1.724l1.62-3.328c-1.482-4.61-5.066-11.461-13.708-17.094l-8.273,10.806l9.102,10.113l-11.289-7.257l-25.45,33.237
		c9.681,6.175,17.127,7.157,21.857,6.803l4.953-5.316l-3.917-2.175l5.35,0.743L247.722,143.369z M241.326,112.104l-0.466-0.164
		l-0.128-0.059c0.068,0.064,0.139,0.133,0.207,0.199L241.326,112.104z M130.645,73.041c-0.014,0.597,0.018,1.782,0.339,3.16
		l4.478-0.511c-1.096-0.964-2.22-2.025-3.372-3.205L130.645,73.041z M169.532,12.598l-0.403,0.061
		c2.864,2.7,5.995,5.587,8.701,7.942C176.314,17.819,173.79,14.811,169.532,12.598z"/>
	<path style="fill:#A3715D;" d="M62.637,134.243c0.448,0.844,0.926,1.694,1.437,2.549l1.79-0.234
		c-0.912-0.812-1.828-1.657-2.75-2.563L62.637,134.243z M170.958,167.87c1.513-3.399,0.758-6.279,0.758-6.279l-2.574,1.84
		l-0.596-8.345l-17.162-15.055c-6.337,3.914-15.711,14.939-15.711,14.939l14.16-18.65l-1.523-7.831h-0.501
		c0,0-1.24-0.465-3.135-1.234c-2.307,3.993-5.727,8.382-8.492,11.692c0.95,0.117,2.867-0.023,5.684-2.004
		c0.118,2.343,0.468,4.748,1.297,6.297l-12.806,10.131l0.654-4.777c0,0-9.789,8.619-8.575,30.108l-3.908-6.994
		c-1.002,7.286-1.894,16.601-0.878,21.881l3.815,1.907l2.805-26.182l6.252-14.343l-0.926,20.076l18.106-23.778
		C154.531,154.987,165.056,161.32,170.958,167.87z M153.046,80.801l3.621-8.634l-6.576,7.125
		C151.062,79.835,152.045,80.346,153.046,80.801z M122.983,49.691l16.552,15.171l-0.275,5.517l2.757,0.376
		c2.543-3.886,6.202-9.344,10.448-15.278l-2.08-3.12l3.238,1.511c6.848-9.468,15.028-19.868,22.472-26.912L157.74,7.856
		l-2.941-2.574l-1.628,0.793l13.927,20.096L149.797,7.719l-4,1.948l2.69,3.094c5.468,2.475,12.804,7.635,18.646,18.395
		c-0.893,1.175-1.367,2.098-1.367,2.098l-19.908,23.188c-1.531-2.503-3.077-4.664-4.61-6.532l2.737-6.819l-4.157,5.174
		c-1.518-1.685-3.013-3.092-4.459-4.265l2.058-5.125l-3.329,4.143c-0.992-0.728-1.955-1.352-2.88-1.88l3.164-7.884l-5.413,6.736
		c-1.821-0.82-3.433-1.28-4.748-1.538c-1.501,2.461-2.937,4.832-4.21,6.964c0.839,1.484,1.738,3.02,2.695,4.585L122.983,49.691z
		 M176.376,38.388c0.176,0.049,0.356,0.105,0.537,0.16c-0.144-0.07-0.296-0.146-0.433-0.212L176.376,38.388z M196.834,54.555
		c0.927,1.266,1.859,2.614,2.794,4.073l-1.294,4.206l-22.238,33.058l13.642-17.053l18.178-19.896c0,0-5.115-22.781-25.201-29.386
		l-7.663,6.461C197.841,42.005,197.266,52.273,196.834,54.555z M201.779,57.21c-1.18-13.989-17.527-21.235-17.527-21.235
		C205.825,42.379,201.779,57.21,201.779,57.21z M88.436,104.302c0.686,1.162,1.929,2.564,4.088,3.191
		c4.412-1.008,8.058-2.312,10.988-3.644C98.484,104.797,93.192,104.752,88.436,104.302z M240.334,130.5l7.096,11.827l-0.612-2.188
		l1.951-4.079L240.334,130.5z M151.958,214.621c-1.855-1.025-3.75-2.263-5.683-3.769c-2.894-2.255-3.66-5.33-5.385-9.199
		l-1.74,20.65c2.809,2.606,5.896,4.553,9.053,5.997L151.958,214.621z M140.659,201.144c-1.501-3.259-3.76-7.062-8.51-11.394
		l-1.671,19.806c1.629,3.955,3.674,7.239,5.994,9.959L140.659,201.144z M130.985,76.201c0.499,2.143,1.706,4.756,4.58,6.38
		c0.024,0.014,0.044,0.024,0.066,0.038c1.059-0.146,4.71-0.636,8.203-0.99c-2.466-1.327-5.297-3.231-8.371-5.938L130.985,76.201z
		 M128.445,186.67l-1.28,10.239c0.368,2.628,0.875,5.063,1.499,7.321l3.333-14.618C130.941,188.657,129.764,187.677,128.445,186.67z
		 M122.431,261.996l-1.237-2.12l-23.528,45.291l-5.726-7.027l-1.879,12.471l21.258,2.523c0,0,2.827-0.262,6.834-0.609l30.759-73.698
		c-1.786-0.627-7.783-2.624-9.33-3.417L122.431,261.996z M129.415,227.773c-7.675-8.13-9.559-17.268-9.559-17.268l0.876-8.175
		l-4.921-4.696c0,0-0.843-2.421-1.139-6.91l-0.212-1.089l-10.787,27.49l-4.046-2.941l-4.968,5.991l2.006,12.324l18.334-16
		c0,0-5.5,10.166,5.5,13.5L109,263.5L129.415,227.773z M161.667,88.167l-2.555-0.17l-0.268,11.806c0,0-11.978,14.324-29.57,9.225
		c0.107,1.251,0.177,2.436,0.213,3.561c0.975,0.671,2.143,1.459,3.43,2.299c4.522-0.622,12.998-2.164,18.938-5.522
		c0,0-3.693,5.679-12.824,9.302c3.671,2.125,7.446,4.006,10.25,4.674l5.149-0.368l9.05-11.312l-5.992,0.25
		C166.758,100.249,161.667,88.167,161.667,88.167z M172.331,170.072c1.659,1.927,4.981,5.747,2.441,2.49
		c-1.032-1.028-1.851-1.894-2.413-2.504C172.349,170.064,172.341,170.067,172.331,170.072z M211.417,194.429
		c10.593-5.23,14.597-15.708,16.073-21.87l-12.743,13.674c-11.637-0.852-14.893-5.643-20.327-9.542
		c-4.616-3.311-8.816-5.819-11.275-8.898c-1.056-1.321-1.914-2.521-2.588-3.527c-2.471,2.536-5.458,4.391-7.897,5.639
		c0.94,1.171,1.636,2.047,2.113,2.659c5.953,5.935,19.034,17.32,31.063,16.545c-1.063,3.923-2.79,8.979-5.471,13.78
		c-7.079,0.455-15.499-0.812-25.23-5.217c0,0,8.442,7.928,21.569,10.726c-1.541,1.928-3.292,3.693-5.277,5.174
		c-4.26-1.22-9.292-3.332-13.95-6.999c0,0,3.101,5.261,10.183,9.279c-2.07,1.006-4.337,1.73-6.842,2.052
		c-7.112,0.911-16.981,3.11-28.465-3.065l-1.479,14.565c12.709,4.691,25.625,2.067,25.625,2.067
		c0.975-0.202,1.928-0.425,2.868-0.659l-0.021-0.066l11.775-10.193l-6.254,8.664c13.49-4.514,22.926-12.217,29.334-19.643
		c-6.876,0.965-9.34-2.827-9.34-2.827c6.014,0,10.95-1.824,14.162-3.454c1.275-1.875,2.354-3.654,3.254-5.276
		c-12.957,8.934-25.461,6.022-25.461,6.022c14.696-0.523,24.37-8.574,29.029-13.628c0.208-0.56,0.306-0.865,0.306-0.865l3.308-7.12
		C219.083,193.771,211.417,194.429,211.417,194.429z M95.231,100.935c2.618-0.633,5.073-1.372,7.224-2.104l-17.763-9.268
		C85.476,92.36,87.914,97.873,95.231,100.935z M143.713,14.056l-5.571,2.294l15.451,4.829L143.713,14.056z M204.116,73.25
		l0.573,2.011l-50.259,55.803l1.838,6.252l12.506,10.298l9.561,5.148h6.797l1.148-1.086c-6.663,0.606-16.904-8.903-20.936-12.949
		c-0.694-0.626-1.396-1.28-2.109-1.98c4.705,1.917,10.311,3.927,14.785,4.731c-7.848-3.93-14.395-9.68-14.395-9.68
		c6.269,2.538,11.243,5.128,14.968,7.32l-14.428-11.494l42.506-46.732c4.086,2.425,12.598,7.431,17.979,10.276
		C220.138,85.66,212.401,77.306,204.116,73.25z M56.331,115.271c-0.32-25.63,16.193-55.063,16.193-55.063l-0.146-11.06
		c-3.434,8.749-17.161,44.811-16.517,60.585C55.862,109.733,55.823,111.834,56.331,115.271z M92.348,184.963l4.033-8.913
		c-0.737,0.227-1.492,0.435-2.268,0.62c0,0-13.789-6.526-27.05-20.788L8.669,237.468c16.447,67.984,56.355,73.242,70.446,72.885
		c-9.087-3.833-25.777-12.323-37.985-26.938l16.203-30.58L34.87,274.623c-6.626-11.093-10.351-24.931-7.799-41.919
		c8.469-17.185,20.67-38.618,37.002-59.671l7.289,5.062l1.902,17.117l8.343-21.484l1.839,4.781l-0.714,1.428l4.389,3.17l0.37-0.92
		l4.16,2.559L92.348,184.963z M247.689,120.004l2.377-2.037l-2.953-3.822l-5.787-2.042l-0.387-0.024
		C243.215,114.236,245.621,116.899,247.689,120.004z M189.189,148.025c0.179,0.011,0.365,0.024,0.529,0.03l0.168-0.18
		C189.657,147.93,189.425,147.98,189.189,148.025z M234.869,164.644l4.193-1.974l4.803-4.696l-0.545-2.398L234.869,164.644z
		 M206.263,137.691l4.556-0.349l-24.298,24.897c1.447,2.066,3.044,3.865,4.718,5.431c-0.089-1.58,0.091-3.484,0.653-5.792
		c0,0,9.111,5.959,22.082,9.464l-1.753,1.402l-10.185,1.979c6.659,2.943,12.199,3.358,12.199,3.358l4.866-5.795l4.351-4.671
		c-4.73,0.354-12.177-0.628-21.857-6.803l25.45-33.237l11.289,7.257l-9.102-10.113l8.273-10.806
		c-1.216-0.793-2.53-1.562-3.955-2.296l-18.877,20.116L206.263,137.691z M95.952,166.739c0,0,11.769-1.47,27.583-26.113
		c0,0-1.638,14.676-11.643,25.586l-0.225,12.621l1.563,1.564l2.581-4.831l-0.017,0.277c0.859-4.317,2.247-9.207,4.43-14.621
		c0,0-0.081,0.422-0.215,1.158l3.714-12.34c3.581-4.523,7.531-10.243,10.186-16.212c1.214-0.119,2.566,0.059,3.35,1.155
		c2.156-4.008,3.428-7.139,4.119-9.102c-0.975-0.418-2.007-0.872-3.066-1.353c-4.215,10.539-13.079,23.195-13.079,23.195
		c5.892-12.465,7.524-21.396,7.974-25.668c-1.423-0.741-2.775-1.499-3.966-2.251c-0.988,8.76-4.235,11.628-4.235,11.628
		c1.103-4.046,0.735-14.343,0.735-14.343l-7.356-6.621l-8.988-5.176c-10.981,5.15-20.01,5.842-25.886,5.436
		c1.158,1.712,4.524,5.194,12.335,4.06c6.943,5.6,17.091,15.554,20.196,27.811c-10.798,6.912-28.966,12.537-49.752-5.668
		l-1.62,0.843c1.73,2.779,3.796,5.598,6.272,8.368c0,0,1.3,1.178,3.317,2.969l4.7-1.722l-3.401,2.872
		c1.48,1.308,3.214,2.828,5.047,4.41l4.872-2.783l-3.413,4.037c1.618,1.385,3.277,2.784,4.881,4.106l5.886-3.362l-4.085,4.833
		C91.755,163.931,94.404,165.915,95.952,166.739z M105.513,34.705l-1.188,0.458l-3.659,9.67l6.858-6.858
		C106.716,37,106.002,35.939,105.513,34.705z M94.891,79.295c-2.386-4.871-4.283-10.847-5.012-18.073
		c-2.164,2.145-7.63,8.83-0.972,16.405C90.836,78.523,92.849,79.139,94.891,79.295z M101.954,89.807
		c-1.202-1.339-2.426-2.871-3.617-4.604c-2.748,0.057-9.525-0.751-16.732-8.744c-0.025,1.96,0.445,6.594,4.807,10.738
		C92.385,88.243,98.078,89.181,101.954,89.807z M94.89,70.692c1.69,4.307,3.853,8.364,6.577,11.089l-1.839-19.125
		c0,0,7.724,25.378,9.931,27.952c0,0,4.313,4.576,10.751,8.393l-0.27-1.956l1.315,2.557c2.011,1.124,4.205,2.152,6.521,2.939
		l-0.634-2.54l1.95,2.955c7.441,2.177,15.991,1.68,23.766-6.095l0.68-11.226L134.66,95.967
		c-10.255-1.476-22.296-7.103-31.556-22.935c-1.641-7.821-3.715-17.999-3.856-20.104c0,0-3.655,7.087-1.226,18.428
		C97.111,71.591,96.042,71.5,94.89,70.692z M222.594,75.477l-1.637-1.88l-8.501-1.033l8.347,7.007L222.594,75.477z"/>
	<path d="M73.981,101.628c-0.299-0.081-0.595-0.167-0.889-0.258C73.295,101.43,73.595,101.519,73.981,101.628z M73.092,101.37
		c-0.104-0.032-0.208-0.062-0.311-0.096C72.781,101.273,72.888,101.308,73.092,101.37z M255.204,117.824l-8.458-7.355l-4.416-0.735
		l-4.788-6.586l0.743-2.976l-1.103-2.023l1.103,0.552l-0.367-7.355l-11.386-20.37l-16.406-6.454l2.064-2.755
		c0.408-3.333-0.455-5.882-1.117-9.008c-0.4-1.881,1.991-6.48,1.208-8.162c-5.829-11.577-24.271-16.217-24.271-16.217l-4.917-4.719
		c-2.7-11.002-14.67-14.941-14.701-14.967l-0.064-0.02l-3.724-0.326c-2.548-2.452-4.29-4.168-4.29-4.168L154.799,0.5l-14.256,6.258
		L140.402,6.7c0,0-0.275,0.138-0.678,0.416l-0.006,0.003c-0.003,0.002-0.005,0.004-0.007,0.007
		c-0.513,0.356-1.227,0.941-1.855,1.761c-7.809,7.745-17.207,20.952-22.201,28.27c-2.403-4.892-3.685-8.127-3.685-8.127
		l-9.114-1.053c-11.401,2.943-36.329,15.92-36.329,15.92c-1.471,12.136-23.539,63.259-23.539,63.259l1.471,4.781
		c2.76,14.76,9.005,26.777,16.166,36.273l-21.853,34.154L5.382,230.308l-4.072,6.811c-0.15,3.393,2.136,3.932,2.666,9.571
		c2.526,26.851,17.486,72.513,89.847,73.811l5.986-0.922h23.025c1.078-2.184,2.379-4.814,3.843-7.768
		c12.173-24.573,35.646-71.655,36.804-71.698c5.677-0.215,12.068-1.178,19.27-3.125c0,0,43.03-18.389,47.442-44.87l19.862-33.835
		l3.309-4.046l1.293-6.145l1.195-0.068l0.361-9.975l2.483-8.455L255.204,117.824z M240.86,111.94l0.466,0.164l5.787,2.042
		l2.953,3.822l3.298,4.269l-1.103,6.621l-0.205,0.419c-0.959-3.412-2.529-6.515-4.367-9.272c-2.068-3.105-4.475-5.768-6.75-7.925
		c-0.068-0.065-0.139-0.134-0.207-0.199L240.86,111.94z M220.957,73.597l1.637,1.88l6.13,7.039l0.608,5.022l-5.022-5.022
		l-3.507-2.944l-8.347-7.007L220.957,73.597z M224.649,91.169c2.55,3.114,4.074,5.323,4.074,5.323l2.942,6.621l-10.946,11.727
		l-4.293-2.386l1.562,5.312l-5.576,5.974l-3.697-2.054l1.345,4.575l-5.953,6.379l-3.104-1.724l1.131,3.839l-6.334,6.785
		l-2.507-1.393l0.912,3.103l-4.318,4.627l-0.168,0.18c-0.164-0.006-0.351-0.02-0.529-0.03c-4.622-0.277-14.008-2.087-25.564-11.075
		c0,0,0.64,0.696,1.719,1.779c4.031,4.046,14.272,13.555,20.936,12.949l-1.148,1.086h-6.797l-9.561-5.148l-12.506-10.298
		l-1.838-6.252l50.259-55.803l-0.573-2.011C212.401,77.306,220.138,85.66,224.649,91.169z M182.714,29.557
		c20.086,6.605,25.201,29.386,25.201,29.386l-18.178,19.896l-13.642,17.053l-12.615,15.77l-9.05,11.312l-5.149,0.368
		c-2.804-0.668-6.579-2.55-10.25-4.674c9.131-3.623,12.824-9.302,12.824-9.302c-5.94,3.358-14.416,4.901-18.938,5.522
		c-1.287-0.84-2.455-1.628-3.43-2.299c-0.037-1.125-0.106-2.31-0.213-3.561c17.592,5.1,29.57-9.225,29.57-9.225l0.268-11.806
		l0.1-4.377l1.472-0.368c-2.629-0.493-5.177-1.332-7.638-2.45c-1.001-0.455-1.983-0.967-2.955-1.51
		c-1.408-0.787-2.788-1.649-4.132-2.597c6.405-9.835,19.264-27.573,25.249-35.767l5.168-2.54l0.104-0.051
		c0.137,0.066,0.289,0.142,0.433,0.212c5.214,2.534,14.372,7.906,19.811,16.471c0,0,0.054-0.168,0.11-0.464
		c0.433-2.282,1.007-12.549-21.783-18.537L182.714,29.557z M169.532,12.598c4.258,2.213,6.782,5.221,8.298,8.003
		c-2.706-2.355-5.837-5.243-8.701-7.942L169.532,12.598z M124.22,38.452c4.843-7.94,10.396-16.854,13.592-21.966l0.329-0.135
		l5.571-2.294l9.88,7.123l5.934,4.279l-11.04-12.697l-2.69-3.094l4-1.948l17.301,18.451L153.171,6.074l1.628-0.793l2.941,2.574
		l18.354,19.101c-7.443,7.045-15.624,17.444-22.472,26.912l-3.238-1.511l2.08,3.12c-4.246,5.934-7.905,11.392-10.448,15.278
		l-2.757-0.376l0.275-5.517l-16.552-15.171l-0.277,0.309c-0.958-1.565-1.857-3.101-2.695-4.585
		C121.284,43.284,122.719,40.913,124.22,38.452z M143.834,81.628c-3.493,0.354-7.145,0.844-8.203,0.99
		c-0.022-0.013-0.042-0.024-0.066-0.038c-2.873-1.624-4.08-4.237-4.58-6.38c-0.321-1.378-0.353-2.563-0.339-3.16l1.445-0.556
		c1.152,1.18,2.276,2.241,3.372,3.205C138.537,78.398,141.368,80.302,143.834,81.628z M226.149,189.543c0,0-0.098,0.306-0.306,0.865
		c-4.659,5.054-14.333,13.105-29.029,13.628c0,0,12.504,2.911,25.461-6.022c-0.9,1.622-1.979,3.401-3.254,5.276
		c-3.212,1.63-8.148,3.454-14.162,3.454c0,0,2.464,3.792,9.34,2.827c-6.408,7.427-15.844,15.13-29.334,19.643l6.254-8.664
		l-11.775,10.193l0.021,0.066c-0.94,0.234-1.893,0.457-2.868,0.659c0,0-12.916,2.624-25.625-2.067l1.479-14.565l0.267-2.622
		l-0.66,2.406l-3.755,13.68c-3.157-1.444-6.244-3.391-9.053-5.997l1.74-20.65l0.204-2.42l-0.436,1.91l-4.188,18.371
		c-2.319-2.72-4.364-6.004-5.994-9.959l1.671-19.806l0.107-1.276l-0.26,1.139l-3.333,14.618c-0.624-2.258-1.13-4.693-1.499-7.321
		l1.28-10.239l0.975-7.794l0.177-3.829l0.926-20.076l-6.252,14.343l-2.805,26.182l-3.815-1.907
		c-1.015-5.28-0.123-14.595,0.878-21.881c0.568-4.136,1.17-7.61,1.482-9.327c0.133-0.735,0.215-1.158,0.215-1.158
		c-2.184,5.414-3.571,10.303-4.43,14.621l0.017-0.277l-2.581,4.831l-26.106,48.866l7.536-9.088l4.968-5.991l4.046,2.941
		l10.787-27.49l0.138-0.351c0.017,0.504,0.044,0.979,0.074,1.439c0.295,4.489,1.139,6.91,1.139,6.91l4.921,4.696l-0.876,8.175
		c0,0,1.884,9.138,9.559,17.268c1.258,1.333,2.667,2.64,4.253,3.874l-13.812,25.936l1.338,2.293l1.237,2.12l17.151-26.587
		c1.547,0.793,7.544,2.79,9.33,3.417l-30.759,73.698c-4.007,0.348-6.834,0.609-6.834,0.609l-21.258-2.523l1.879-12.471l1.538-10.206
		l-11.109,22.218c-0.827,0.085-1.929,0.167-3.254,0.201c-14.091,0.357-53.999-4.9-70.446-72.885l58.393-81.585
		c13.261,14.261,27.05,20.788,27.05,20.788c0.776-0.186,1.531-0.394,2.268-0.62l-4.033,8.913l-0.075,0.165l-0.621-0.383l-4.16-2.559
		l-0.37,0.92l-22.433,55.72l40.461-66.866c2.59-1.689,4.818-3.648,6.742-5.747c10.004-10.911,11.643-25.586,11.643-25.586
		c-15.814,24.643-27.583,26.113-27.583,26.113c-1.548-0.824-4.196-2.809-7.205-5.235l4.085-4.833l-5.886,3.362
		c-1.604-1.322-3.263-2.721-4.881-4.106l3.413-4.037l-4.872,2.783c-1.833-1.582-3.567-3.102-5.047-4.41l3.401-2.872l-4.7,1.722
		c-2.017-1.79-3.317-2.969-3.317-2.969c-2.476-2.77-4.542-5.588-6.272-8.368l1.62-0.843l1.101-0.573l-1.527,0.2l-1.79,0.234
		c-0.51-0.856-0.988-1.706-1.437-2.549l0.476-0.248l4.646-2.418l-6.076,0.794c-1.976-4.052-3.285-7.884-4.146-11.205l5.682-1.136
		l-6.185-0.952c-0.308-1.396-0.535-2.675-0.702-3.808c-0.508-3.437-0.469-5.538-0.469-5.538
		c-0.644-15.774,13.083-51.836,16.517-60.585c0.489-1.246,0.77-1.939,0.77-1.939l31.177-12.046l1.188-0.458
		c0.489,1.234,1.203,2.295,2.012,3.271c2.07,2.493,4.782,4.4,6.079,7.027c1.703,3.451,3.408,6.594,5.1,9.471l-0.411,0.458
		l3.907,5.135c2.427,3.647,4.812,6.755,7.115,9.403l-4.146,2.679l2.977,0.581c0.597,10.023,6.609,10.981,6.609,10.981l-4.558,3.154
		l18.753-3.033c2.987,0.952,4.743,0.891,4.743,0.891l-0.056,0.911l-0.68,11.226c-7.774,7.775-16.324,8.272-23.766,6.095l-1.95-2.955
		l0.634,2.54c-2.317-0.787-4.51-1.815-6.521-2.939l-1.315-2.557l0.27,1.956c-6.438-3.817-10.751-8.393-10.751-8.393
		c-2.207-2.574-9.931-27.952-9.931-27.952l1.839,19.125c-2.725-2.725-4.887-6.782-6.577-11.089
		c-3.784-9.644-5.192-20.541-5.192-20.541c-0.249,3.981-0.163,7.664,0.181,11.071c0.729,7.227,2.626,13.202,5.012,18.073
		c-2.042-0.157-4.056-0.773-5.983-1.668c-8.548-3.971-15.393-13.501-15.393-13.501c2.631,5.345,5.39,9.339,8.089,12.333
		c7.207,7.993,13.984,8.801,16.732,8.744c1.191,1.732,2.415,3.264,3.617,4.604c-3.876-0.626-9.569-1.564-15.542-2.609
		c-3.194-0.56-6.466-1.149-9.586-1.739l7.866,4.104l17.763,9.268c-2.151,0.733-4.606,1.472-7.224,2.104
		c-6.693,1.618-14.486,2.52-21.25,0.693c2.343,0.658,7.883,2.054,14.455,2.674c4.756,0.449,10.048,0.495,15.076-0.453
		c-2.931,1.332-6.576,2.636-10.988,3.644c-4.612,1.053-10.061,1.783-16.433,1.871c0,0,2.689,1.038,7.421,1.364
		c5.876,0.406,14.905-0.286,25.886-5.436l8.988,5.176l7.356,6.621c0,0,0.368,10.297-0.735,14.343c0,0,3.247-2.868,4.235-11.628
		c1.191,0.752,2.544,1.51,3.966,2.251c-0.449,4.272-2.082,13.203-7.974,25.668c0,0,8.864-12.656,13.079-23.195
		c1.06,0.481,2.092,0.935,3.066,1.353c-0.691,1.963-1.963,5.094-4.119,9.102c-1.449,2.691-3.293,5.774-5.645,9.179
		c0,0,2.001-2.144,4.566-5.215c2.765-3.31,6.186-7.699,8.492-11.692c1.895,0.769,3.135,1.234,3.135,1.234h0.501l1.523,7.831
		l-14.16,18.65c0,0,9.374-11.025,15.711-14.939l17.162,15.055l0.596,8.345l2.574-1.84c0,0,0.755,2.88-0.758,6.279
		c-0.582,1.308-1.489,2.689-2.92,4.019c0,0,1.826-0.583,4.293-1.816c0.01-0.005,0.018-0.009,0.028-0.014
		c0.097-0.049,0.2-0.105,0.3-0.155c2.439-1.248,5.427-3.102,7.897-5.639c0.674,1.006,1.532,2.206,2.588,3.527
		c2.459,3.079,6.659,5.588,11.275,8.898c5.435,3.899,8.691,8.691,20.327,9.542l12.743-13.674c-1.476,6.162-5.48,16.641-16.073,21.87
		c0,0,7.666-0.657,18.04-12.006L226.149,189.543z M229.838,160.867l-5.35-0.743l3.917,2.175l-4.953,5.316l-4.351,4.671l-4.866,5.795
		c0,0-5.54-0.415-12.199-3.358l10.185-1.979l1.753-1.402c-12.971-3.505-22.082-9.464-22.082-9.464
		c-0.562,2.308-0.742,4.212-0.653,5.792c-1.674-1.565-3.271-3.364-4.718-5.431l24.298-24.897l-4.556,0.349l8.411-5.958
		l18.877-20.116c1.425,0.735,2.739,1.503,3.955,2.296c8.643,5.632,12.226,12.484,13.708,17.094l-1.62,3.328l-0.825,1.724
		l-1.951,4.079l0.612,2.188l0.292,1.042L229.838,160.867z M243.865,157.974l-4.803,4.696l-4.193,1.974l8.451-9.068l6.733-7.225
		l3.878-0.219L243.865,157.974z M201.779,57.21c0,0,4.046-14.831-17.527-21.235C184.252,35.975,200.599,43.221,201.779,57.21z
		 M83.446,178.509l-1.839-4.781l-8.343,21.484l-6.368,16.398l15.836-31.674L83.446,178.509z M163.625,131.799
		c0,0,6.547,5.75,14.395,9.68c2.838,1.421,5.846,2.607,8.776,3.193c0,0-2.749-2.345-8.203-5.554
		C174.868,136.927,169.893,134.337,163.625,131.799z"/>
</g>
</svg>
