<?xml version="1.0" encoding="utf-8"?>
<!-- Generator: Adobe Illustrator 26.5.0, SVG Export Plug-In . SVG Version: 6.00 Build 0)  -->
<svg version="1.1" id="Layer_1" xmlns:svg="http://www.w3.org/2000/svg"
	 xmlns="http://www.w3.org/2000/svg" xmlns:xlink="http://www.w3.org/1999/xlink" x="0px" y="0px" viewBox="0 0 615.118 379.843"
	 style="enable-background:new 0 0 615.118 379.843;" xml:space="preserve">
<g>
	<path id="svg_1" style="fill:#BA0000;" d="M307.559,292.381c0,0-35.409-13.864-46.41-28.329c-11-14.464,5.576-65.543,6.632-82.567
		C268.837,164.46,80.042,104.942,1.391,1.282c36.161,103.664,206.572,209.432,210.941,219.377s-11.601,56.05-7.833,70.515
		s103.06,87.395,103.06,87.391c0,0,99.292-72.927,103.06-87.391s-12.201-60.57-7.833-70.515S577.566,104.942,613.727,1.278
		c-78.651,103.664-267.446,163.178-266.39,180.203s17.632,68.106,6.632,82.571C342.968,278.517,307.559,292.381,307.559,292.381z"/>
</g>
</svg>
