<?xml version="1.0" encoding="utf-8"?>
<!-- Generator: Adobe Illustrator 26.5.0, SVG Export Plug-In . SVG Version: 6.00 Build 0)  -->
<svg version="1.1" id="Layer_1" xmlns="http://www.w3.org/2000/svg" xmlns:xlink="http://www.w3.org/1999/xlink" x="0px" y="0px"
	 viewBox="0 0 246.614 79.937" style="enable-background:new 0 0 246.614 79.937;" xml:space="preserve">
<g>
	<path d="M208.557,2.732c-3.892,0.119-14.05,0.775-20.75,1.34c-12.1,1.022-20.513,2.226-28.875,4.133
		c-2.625,0.599-6.484,1.476-8.625,1.962c-10.5,2.38-18.441,3.375-27,3.384c-9.855,0.01-16.925-0.987-32-4.511
		c-8.425-1.97-12.571-2.736-19.5-3.605c-22.375-2.805-46.815-3.391-67.5-1.618C2.732,3.953,1.291,4.064,1.12,4.064
		c-0.247,0-0.299,1.837-0.25,8.787l0.062,8.787l1.25,0.427c4.254,1.453,7.026,3.948,9.83,8.848c1.768,3.091,1.976,3.9,2.279,8.9
		c0.384,6.325,1.177,9.511,3.657,14.7c2.904,6.075,8.962,13.76,13.609,17.263c11.535,8.694,35.85,10.748,52.25,4.413
		c5.4-2.086,9.032-4.378,12.65-7.984l2.525-2.517l3.108-6.25c4.737-9.525,6.566-14.127,8.595-21.625
		c0.961-3.55,1.647-4.853,3.472-6.59c2.808-2.673,5.2-3.852,8.275-4.078c3.5-0.258,7.074,1.13,9.75,3.787
		c1.97,1.955,2.847,3.706,4.134,8.256c1.39,4.912,2.172,7.1,4.394,12.3c2.383,5.575,4.79,10.39,6.536,13.075
		c4.835,7.433,13.81,12.331,26.685,14.562c2.882,0.499,4.1,0.563,10.75,0.563c8.1,0,10.55-0.26,16.375-1.74
		c10.525-2.673,15.668-6.174,22.606-15.385c6.064-8.052,7.92-13,8.656-23.075c0.314-4.3,0.768-5.989,2.358-8.775
		c2.611-4.575,5.63-7.252,9.756-8.651l1.25-0.424l0.062-8.75l0.062-8.75l-1.7-0.162C235.257,3.136,216.668,2.485,208.557,2.732
		L208.557,2.732z M201.307,9.35c10.525,0.706,17.32,3.198,21.172,7.764c2.449,2.903,4.135,8.925,4.853,17.325
		c0.463,5.425-0.11,10.357-1.693,14.575c-2.619,6.975-8.757,15.159-14.331,19.108c-6.892,4.884-17.9,7.201-30.675,6.459
		c-13.825-0.803-22.628-4.336-28.197-11.318c-2.865-3.592-8.432-15.55-10.347-22.225c-1.262-4.4-1.581-6.666-1.489-10.575
		l0.083-3.525l1.05-2.125c4.212-8.523,12.225-11.742,37.05-14.883C187.602,8.815,191.732,8.708,201.307,9.35L201.307,9.35z
		 M65.057,9.566c1.588,0.151,5.225,0.606,8.125,1.017c13.1,1.858,20.843,4.066,25.775,7.35c2.67,1.778,4.31,3.655,5.792,6.63
		l1.183,2.375l0.087,3.65c0.107,4.461-0.308,7.1-1.821,11.6c-1.368,4.067-2.825,7.5-5.667,13.35
		c-4.276,8.8-6.571,11.377-12.924,14.513c-5.881,2.903-10.725,4.027-19.5,4.525c-8.35,0.474-16.237-0.334-22.125-2.268
		c-5.575-1.831-9.217-4.061-12.977-7.945c-6.542-6.758-10.472-14.15-11.59-21.8c-0.693-4.737-0.217-11.275,1.269-17.45
		c1.606-6.675,3.86-9.674,9.249-12.308c3.435-1.679,7.975-2.895,13.375-3.581C44.912,9.02,62.157,9.291,65.057,9.566L65.057,9.566z"
		/>
</g>
</svg>
