<?xml version="1.0" encoding="utf-8"?>
<!-- Generator: Adobe Illustrator 26.5.0, SVG Export Plug-In . SVG Version: 6.00 Build 0)  -->
<svg version="1.1" id="Layer_1" xmlns="http://www.w3.org/2000/svg" xmlns:xlink="http://www.w3.org/1999/xlink" x="0px" y="0px"
	 viewBox="0 0 205.297 205.911" style="enable-background:new 0 0 205.297 205.911;" xml:space="preserve">
<g>
	<ellipse style="fill:#FFFFFF;" cx="102.782" cy="102.828" rx="101.489" ry="101.698"/>
	<path style="fill:#FE2749;" d="M124.826,3.482c-1.485,1.727-2.506,2.958-3.572,4.147c-17.783,19.845-21.151,44.152-9.429,68.114
		c8.905,18.205,6.927,30.113-7.412,44.624c-4.161,4.211-4.654,9.926-1.201,13.911c3.611,4.167,9.375,4.39,14.347,0.555
		c16.6-12.804,23.297-36.291,16.199-57.355c-1.323-3.927-3.05-7.75-4.915-11.459c-11.732-23.338,1.768-43.376,16.424-53.427
		c1.157-0.793,3.825-0.409,5.262,0.385c29.232,16.133,47.51,40.529,52.762,73.554c8.96,56.344-27.523,106.918-83.655,117.067
		c-58.132,10.51-114.78-33.848-118.492-92.787C-2.207,57.587,32.417,12.67,84.691,2.647C97.848,0.124,111.031,0.361,124.826,3.482z
		 M68.996,139.063c-0.282,6.069,0.457,11.283-1.006,15.781c-1.482,4.556-5.142,8.404-8.148,13.024c2.653,1.099,4.842,2.38,7.2,2.905
		c5.04,1.122,8.63,3.504,10.724,8.513c1.118,2.674,3.572,4.788,6.082,7.998c2.449-4.288,4.494-7.315,5.961-10.599
		c1.366-3.058,3.099-4.601,6.655-4.763c3.292-0.15,6.536-1.366,11.565-2.516c-9.575-8.757-10.918-18.776-9.164-30.631
		c-4.725,1.977-7.958,2.879-10.69,4.584c-3.515,2.193-6.456,2.482-9.957-0.027C75.989,141.734,73.178,140.949,68.996,139.063z"/>
</g>
</svg>
