<?xml version="1.0" encoding="utf-8"?>
<!-- Generator: Adobe Illustrator 26.5.0, SVG Export Plug-In . SVG Version: 6.00 Build 0)  -->
<svg version="1.1" id="Layer_1" xmlns="http://www.w3.org/2000/svg" xmlns:xlink="http://www.w3.org/1999/xlink" x="0px" y="0px"
	 viewBox="0 0 205.297 205.911" style="enable-background:new 0 0 205.297 205.911;" xml:space="preserve">
<g>
	<circle style="fill:#FFFFFF;" cx="102.794" cy="103.049" r="101.489"/>
	<path style="fill:#D8B442;" d="M1.124,98.174c49.194,0,98.086,0,147.981,0c-5.427,8.505-10.376,16.304-15.368,24.076
		c-10.714,16.676-21.45,33.338-32.177,50.005c-0.18,0.28-0.373,0.552-0.55,0.835c-3.881,6.196-3.135,12.157,1.924,15.387
		c4.87,3.11,10.499,1.392,14.395-4.571c5.557-8.506,11.007-17.081,16.5-25.628c13.237-20.598,26.459-41.206,39.722-61.787
		c2.54-3.941,4.447-7.896,1.857-12.556c-2.568-4.62-6.833-5.193-11.578-5.178c-17.327,0.054-34.655-0.03-51.983-0.11
		c-34.484-0.158-68.967-0.345-103.451-0.532c-1.31-0.007-2.619-0.14-3.955-0.215c6.92-36.879,46.76-80.501,104.904-76.635
		c57.796,3.843,99.462,53.453,95.036,109.546c-4.609,58.41-55.172,99.151-111.07,93.761C31.602,198.623-2.516,144.482,1.124,98.174z
		 M107.976,55.947c5.999,0,11.999,0.002,17.998,0c8.832-0.004,17.667,0.108,26.496-0.056c6.052-0.112,10.135-4.023,10.298-9.38
		c0.164-5.428-3.602-9.515-9.533-10.249c-1.316-0.163-2.662-0.102-3.994-0.102c-27.33-0.005-54.661-0.018-81.991,0.024
		c-2.143,0.003-4.362,0.122-6.414,0.675c-4.59,1.238-7.255,5.048-7.12,9.644c0.132,4.512,3.149,8.15,7.794,9.122
		c1.609,0.337,3.311,0.305,4.97,0.308C80.312,55.954,94.144,55.945,107.976,55.947z"/>
</g>
</svg>
