<?xml version="1.0" encoding="utf-8"?>
<!-- Generator: Adobe Illustrator 26.5.0, SVG Export Plug-In . SVG Version: 6.00 Build 0)  -->
<svg version="1.1" id="Layer_1" xmlns="http://www.w3.org/2000/svg" xmlns:xlink="http://www.w3.org/1999/xlink" x="0px" y="0px"
	 viewBox="0 0 205.297 205.911" style="enable-background:new 0 0 205.297 205.911;" xml:space="preserve">
<g>
	<ellipse style="fill:#FFFFFF;" cx="102.782" cy="103.038" rx="101.489" ry="101.863"/>
	<path style="fill:#FE802A;" d="M115.24,204.119c1.337-2.116,2.249-3.655,3.251-5.133c14.745-21.762,29.503-43.515,44.256-65.271
		c0.934-1.377,1.914-2.726,2.778-4.146c4.976-8.174,0.684-16.102-8.922-16.138c-25.387-0.096-50.774-0.036-76.162-0.037
		c-1.815,0-3.63,0-6.294,0c0-2.008,0-3.752,0-5.495c0-16.83,0.003-33.659-0.006-50.489c-0.001-1.665,0.057-3.346-0.137-4.992
		c-0.588-4.997-4.519-8.65-9.299-8.775c-4.967-0.131-9.28,3.568-9.72,8.831c-0.346,4.138-0.159,8.324-0.161,12.489
		c-0.01,18.496-0.026,36.992,0.008,55.488c0.017,8.93,3.405,12.304,12.417,12.32c21.903,0.038,43.805,0.014,65.708,0.015
		c1.787,0,3.573,0,6.046,0c-0.709,1.57-1.012,2.611-1.589,3.464c-14.735,21.769-29.447,43.554-44.371,65.191
		c-1.007,1.46-3.797,2.742-5.519,2.486c-50.02-7.428-86.574-50.625-86.329-101.759C1.434,52.158,38.528,9.485,88.011,2.291
		c64.123-9.322,120.24,42.699,116.149,107.671C201.133,158.034,161.896,200.002,115.24,204.119z M149.57,59.42
		c-0.142-3.812-2.978-6.584-6.783-8.778c-15.673-9.039-31.312-18.138-46.973-27.197c-1.289-0.745-2.608-1.488-3.998-1.999
		c-4.508-1.658-9.25,0.03-11.666,4.04c-2.386,3.959-1.639,9.054,1.953,12.262c1.224,1.093,2.696,1.933,4.125,2.764
		c15.208,8.849,30.417,17.697,45.666,26.475c1.991,1.146,4.123,2.261,6.332,2.769C144.061,71.097,149.624,66.342,149.57,59.42z"/>
</g>
</svg>
