<?xml version="1.0" encoding="utf-8"?>
<!-- Generator: Adobe Illustrator 26.5.0, SVG Export Plug-In . SVG Version: 6.00 Build 0)  -->
<svg version="1.1" id="Layer_1" xmlns="http://www.w3.org/2000/svg" xmlns:xlink="http://www.w3.org/1999/xlink" x="0px" y="0px"
	 viewBox="0 0 205.297 205.911" style="enable-background:new 0 0 205.297 205.911;" xml:space="preserve">
<g>
	<circle style="fill:#FFFFFF;" cx="102.668" cy="103.219" r="101.489"/>
	<path style="fill:#FE31AA;" d="M87.645,146.227c31.855-34.765,63.71-69.53,95.594-104.327
		c24.249,27.158,34.308,87.297-6.635,131.381c-39.076,42.073-105.998,42.345-146.887,0.389
		C-9.969,132.946-7.59,65.125,34.722,27.315C79.099-12.341,140.08-2.623,170.086,27.285c-17.235,18.809-34.483,37.632-52.098,56.857
		c-4.235-4.445-8.115-8.508-11.984-12.583C93.524,58.417,81.061,45.258,68.56,32.135c-2.964-3.111-6.79-5.14-10.679-2.864
		c-2.694,1.577-5.803,4.75-6.113,7.506c-0.344,3.057,1.52,7.158,3.744,9.583c14.835,16.174,30.025,32.02,45.096,47.977
		c1.239,1.311,2.448,2.651,3.995,4.329c-7.448,8.183-14.676,16.153-21.936,24.093c-8.079,8.836-16.146,17.683-24.303,26.445
		c-3.233,3.473-4.708,7.363-2.891,11.858c1.853,4.586,5.787,6.104,10.472,6.103c30.695-0.009,61.39,0.028,92.085-0.033
		c6.596-0.013,11.174-4.008,11.319-9.466c0.153-5.768-4.325-9.844-11.192-10.155c-1.325-0.06-2.654-0.017-3.982-0.017
		c-20.242-0.001-40.485,0-60.727,0c-1.771,0-3.543,0-5.314,0C87.972,147.071,87.808,146.649,87.645,146.227z"/>
</g>
</svg>
