<?xml version="1.0" encoding="utf-8"?>
<!-- Generator: Adobe Illustrator 26.5.0, SVG Export Plug-In . SVG Version: 6.00 Build 0)  -->
<svg version="1.1" id="Layer_1" xmlns="http://www.w3.org/2000/svg" xmlns:xlink="http://www.w3.org/1999/xlink" x="0px" y="0px"
	 viewBox="0 0 205.297 205.911" style="enable-background:new 0 0 205.297 205.911;" xml:space="preserve">
<g>
	<circle style="fill:#FFFFFF;" cx="103.097" cy="103.038" r="101.489"/>
	<g>
		<path style="fill:#74D8F5;" d="M50.528,16.089c0,2.561,0,4.34,0,6.119c0,48.141,0,96.283,0.001,144.424
			c0,1.666-0.05,3.334,0.026,4.997c0.269,5.91,4.236,9.81,9.806,9.697c5.311-0.108,9.261-3.971,9.316-9.668
			c0.133-13.825,0.054-27.652,0.06-41.478c0.001-1.988,0-3.977,0-6.461c44.301,0,88.711,0.08,132.724,0.08
			c-4.645,26.826-29.683,68.376-77.18,78.949c-48.99,10.906-99.861-15.167-118.137-64.907C-9.903,91.45,9.639,40.221,50.528,16.089z
			"/>
		<path style="fill:#74D8F5;" d="M204.586,103.456c-45.677,0-89.607,0-134.584,0c-0.085-1.513-0.254-3.124-0.255-4.735
			c-0.016-28.997,0.059-57.995-0.097-86.991c-0.02-3.764,0.975-5.472,4.74-6.624c57.836-17.712,120.783,22.121,129.329,82.04
			C204.441,92.208,204.428,97.327,204.586,103.456z M117.548,57.79c0-4.996,0.084-9.994-0.021-14.988
			c-0.136-6.45-4.314-11.092-9.835-11.129c-5.533-0.037-9.834,4.557-9.912,10.98c-0.121,9.991-0.104,19.985-0.007,29.976
			c0.065,6.622,4.512,11.529,10.045,11.393c5.396-0.133,9.566-4.872,9.706-11.245C117.634,67.784,117.547,62.786,117.548,57.79z
			 M153.644,57.742c0-5.164,0.079-10.329-0.021-15.49c-0.115-5.951-3.816-10.076-9.219-10.497c-4.861-0.379-9.683,2.875-9.975,8.44
			c-0.608,11.602-0.643,23.278-0.072,34.882c0.289,5.875,5.284,9.415,10.159,8.888c5.198-0.561,9.008-4.962,9.111-10.733
			C153.718,68.071,153.645,62.906,153.644,57.742z"/>
	</g>
</g>
</svg>
